<svg width="43" height="43" viewBox="0 0 43 43" fill="none" xmlns="http://www.w3.org/2000/svg">
<path d="M12.0937 5.375V9.40625M30.9062 5.375V9.40625M5.375 33.5937V13.4375C5.375 12.3683 5.79972 11.343 6.55573 10.587C7.31173 9.83097 8.3371 9.40625 9.40625 9.40625H33.5937C34.6629 9.40625 35.6883 9.83097 36.4443 10.587C37.2003 11.343 37.625 12.3683 37.625 13.4375V33.5937M5.375 33.5937C5.375 34.6629 5.79972 35.6883 6.55573 36.4443C7.31173 37.2003 8.3371 37.625 9.40625 37.625H33.5937C34.6629 37.625 35.6883 37.2003 36.4443 36.4443C37.2003 35.6883 37.625 34.6629 37.625 33.5937M5.375 33.5937V20.1562C5.375 19.0871 5.79972 18.0617 6.55573 17.3057C7.31173 16.5497 8.3371 16.125 9.40625 16.125H33.5937C34.6629 16.125 35.6883 16.5497 36.4443 17.3057C37.2003 18.0617 37.625 19.0871 37.625 20.1562V33.5937M21.5 22.8437H21.5143V22.8581H21.5V22.8437ZM21.5 26.875H21.5143V26.8893H21.5V26.875ZM21.5 30.9062H21.5143V30.9206H21.5V30.9062ZM17.4687 26.875H17.4831V26.8893H17.4687V26.875ZM17.4687 30.9062H17.4831V30.9206H17.4687V30.9062ZM13.4375 26.875H13.4518V26.8893H13.4375V26.875ZM13.4375 30.9062H13.4518V30.9206H13.4375V30.9062ZM25.5312 22.8437H25.5456V22.8581H25.5312V22.8437ZM25.5312 26.875H25.5456V26.8893H25.5312V26.875ZM25.5312 30.9062H25.5456V30.9206H25.5312V30.9062ZM29.5625 22.8437H29.5768V22.8581H29.5625V22.8437ZM29.5625 26.875H29.5768V26.8893H29.5625V26.875Z" stroke="#243958" stroke-width="2" stroke-linecap="round" stroke-linejoin="round"/>
</svg>
