<svg width="557" height="448" viewBox="0 0 557 448" fill="none" xmlns="http://www.w3.org/2000/svg">
<g clip-path="url(#clip0_1699_185)">
<rect x="124" y="-1" width="433" height="261" fill="#FFFAFA"/>
<path d="M552.874 0.5C553.835 0.501123 554.757 0.883579 555.437 1.56348C556.074 2.20094 556.45 3.05117 556.496 3.94727L556.5 4.12695V255.564L556.496 255.744C556.45 256.64 556.074 257.49 555.437 258.128C554.757 258.808 553.835 259.19 552.874 259.191H127.583C126.621 259.19 125.699 258.808 125.019 258.128C124.339 257.448 123.957 256.526 123.956 255.564V4.12695C123.957 3.16535 124.339 2.24343 125.019 1.56348C125.657 0.925992 126.507 0.550231 127.403 0.504883L127.583 0.5H552.874ZM127.582 1.15039C126.793 1.15125 126.036 1.46564 125.478 2.02344C124.921 2.58119 124.607 3.33736 124.606 4.12598V255.565C124.607 256.354 124.921 257.11 125.478 257.668C125.966 258.156 126.607 258.457 127.288 258.525L127.582 258.541H552.875C553.663 258.54 554.419 258.226 554.977 257.668C555.465 257.18 555.766 256.54 555.834 255.859L555.85 255.565V4.12598L555.834 3.83203C555.766 3.15123 555.465 2.51151 554.977 2.02344C554.489 1.53539 553.849 1.23332 553.168 1.16504L552.875 1.15039H127.582Z" fill="#FFFBFB" stroke="#E6E6E6"/>
<path d="M299.233 20.0811C298.375 20.0955 297.556 20.4465 296.955 21.0585C296.353 21.6704 296.016 22.4943 296.016 23.3526C296.016 24.2109 296.353 25.0348 296.955 25.6468C297.556 26.2587 298.375 26.6097 299.233 26.6241H381.257C382.123 26.6369 382.959 26.3058 383.581 25.7036C384.203 25.1013 384.561 24.2769 384.577 23.411C384.592 22.5451 384.264 21.7085 383.664 21.0843C383.063 20.4602 382.24 20.0995 381.374 20.0813L381.365 20.0811C381.329 20.0805 381.293 20.0805 381.257 20.0811H299.233Z" fill="#3F3D56"/>
<path d="M399.858 19.1702C399.738 19.2909 399.67 19.4547 399.67 19.6254C399.67 19.7961 399.738 19.9599 399.858 20.0806L402.622 22.8442H395.807C395.637 22.8447 395.474 22.9128 395.353 23.0334C395.233 23.1541 395.166 23.3176 395.166 23.488C395.166 23.6584 395.233 23.8218 395.353 23.9425C395.474 24.0632 395.637 24.1312 395.807 24.1317H402.622L399.858 26.8953C399.799 26.955 399.751 27.026 399.719 27.1041C399.686 27.1822 399.67 27.2659 399.67 27.3505C399.67 27.435 399.686 27.5187 399.719 27.5968C399.751 27.6749 399.799 27.7459 399.858 27.8057C399.918 27.8655 399.989 27.9129 400.067 27.9452C400.145 27.9776 400.229 27.9942 400.313 27.9942C400.398 27.9942 400.482 27.9776 400.56 27.9452C400.638 27.9129 400.709 27.8655 400.769 27.8057L404.631 23.9432C404.752 23.8224 404.82 23.6587 404.82 23.488C404.82 23.3172 404.752 23.1535 404.631 23.0328L400.769 19.1702C400.709 19.1105 400.638 19.063 400.56 19.0307C400.482 18.9983 400.398 18.9817 400.314 18.9817C400.229 18.9817 400.145 18.9983 400.067 19.0307C399.989 19.063 399.918 19.1105 399.858 19.1702Z" fill="#E6E6E6"/>
<path d="M280.597 19.1702C280.718 19.291 280.786 19.4547 280.786 19.6254C280.786 19.7961 280.718 19.9599 280.597 20.0806L277.834 22.8442H284.648C284.733 22.8439 284.817 22.8603 284.895 22.8924C284.973 22.9246 285.045 22.9719 285.105 23.0316C285.165 23.0913 285.212 23.1623 285.245 23.2405C285.277 23.3187 285.294 23.4025 285.294 23.4872C285.294 23.5719 285.278 23.6558 285.245 23.734C285.213 23.8123 285.166 23.8834 285.106 23.9433C285.046 24.0031 284.975 24.0506 284.896 24.0829C284.818 24.1153 284.734 24.1319 284.65 24.1317H277.834L280.597 26.8953C280.657 26.9551 280.704 27.026 280.737 27.1041C280.769 27.1822 280.786 27.2659 280.786 27.3505C280.786 27.435 280.769 27.5187 280.737 27.5968C280.704 27.675 280.657 27.7459 280.597 27.8057C280.537 27.8655 280.466 27.9129 280.388 27.9452C280.31 27.9776 280.226 27.9943 280.142 27.9943C280.057 27.9943 279.974 27.9776 279.896 27.9453C279.817 27.9129 279.746 27.8655 279.687 27.8057L275.824 23.9432C275.704 23.8225 275.636 23.6587 275.636 23.488C275.636 23.3172 275.704 23.1535 275.824 23.0328L279.687 19.1702C279.807 19.0495 279.971 18.9817 280.142 18.9817C280.313 18.9817 280.476 19.0495 280.597 19.1702Z" fill="#E6E6E6"/>
<path d="M123.209 273.541C119.48 273.541 115.834 272.436 112.733 270.364C109.632 268.292 107.216 265.347 105.788 261.901C104.361 258.455 103.988 254.664 104.715 251.006C105.443 247.348 107.239 243.988 109.876 241.351C112.513 238.714 115.873 236.918 119.531 236.191C123.188 235.463 126.98 235.837 130.425 237.264C133.871 238.691 136.816 241.108 138.888 244.209C140.959 247.31 142.065 250.955 142.065 254.685C142.065 259.686 140.079 264.482 136.542 268.018C133.006 271.555 128.21 273.541 123.209 273.541Z" fill="#6C63FF"/>
<path d="M130.649 252.825H125.069V247.245C125.069 246.751 124.873 246.278 124.524 245.929C124.175 245.581 123.702 245.385 123.209 245.385C122.716 245.385 122.243 245.581 121.894 245.929C121.545 246.278 121.349 246.751 121.349 247.245V252.825H115.769C115.275 252.825 114.802 253.021 114.453 253.37C114.105 253.719 113.909 254.192 113.909 254.685C113.909 255.178 114.105 255.651 114.453 256C114.802 256.349 115.275 256.545 115.769 256.545H121.349V262.125C121.349 262.619 121.545 263.092 121.894 263.441C122.242 263.789 122.716 263.985 123.209 263.985C123.702 263.985 124.175 263.789 124.524 263.441C124.873 263.092 125.069 262.619 125.069 262.125V256.545H130.649C131.142 256.545 131.615 256.349 131.964 256C132.313 255.651 132.509 255.178 132.509 254.685C132.509 254.192 132.313 253.719 131.964 253.37C131.615 253.021 131.142 252.825 130.649 252.825Z" fill="white"/>
<path d="M214.511 53.5765H157.842V92.09H214.511V53.5765Z" fill="#F1F1F1"/>
<path d="M291.537 53.5765H234.868V92.09H291.537V53.5765Z" fill="#F1F1F1"/>
<path d="M368.562 53.5765H311.893V92.09H368.562V53.5765Z" fill="#F1F1F1"/>
<path d="M445.588 53.5765H388.919V92.09H445.588V53.5765Z" fill="#F1F1F1"/>
<path d="M522.614 53.5765H465.945V92.09H522.614V53.5765Z" fill="#F1F1F1"/>
<path d="M214.719 121.25H158.05V159.764H214.719V121.25Z" fill="#F1F1F1"/>
<path d="M291.744 121.25H235.075V159.764H291.744V121.25Z" fill="#F1F1F1"/>
<path d="M368.77 121.25H312.101V159.764H368.77V121.25Z" fill="#F1F1F1"/>
<path d="M445.796 121.25H389.127V159.764H445.796V121.25Z" fill="#F1F1F1"/>
<path d="M522.821 121.25H466.152V159.764H522.821V121.25Z" fill="#F1F1F1"/>
<path d="M214.926 188.924H158.257V227.438H214.926V188.924Z" fill="#F1F1F1"/>
<path d="M291.952 188.924H235.283V227.438H291.952V188.924Z" fill="#F1F1F1"/>
<path d="M368.978 188.924H312.309V227.438H368.978V188.924Z" fill="#F1F1F1"/>
<path d="M446.003 188.924H389.334V227.438H446.003V188.924Z" fill="#F1F1F1"/>
<path d="M523.029 188.924H466.36V227.438H523.029V188.924Z" fill="#F1F1F1"/>
<path d="M323.655 72.8333C327.605 72.8333 330.807 69.631 330.807 65.6807C330.807 61.7305 327.605 58.5282 323.655 58.5282C319.705 58.5282 316.502 61.7305 316.502 65.6807C316.502 69.631 319.705 72.8333 323.655 72.8333Z" fill="#6C63FF"/>
<path d="M245.529 140.507C249.479 140.507 252.681 137.305 252.681 133.355C252.681 129.404 249.479 126.202 245.529 126.202C241.579 126.202 238.376 129.404 238.376 133.355C238.376 137.305 241.579 140.507 245.529 140.507Z" fill="#6C63FF"/>
<path d="M323.655 208.181C327.605 208.181 330.807 204.979 330.807 201.028C330.807 197.078 327.605 193.876 323.655 193.876C319.705 193.876 316.502 197.078 316.502 201.028C316.502 204.979 319.705 208.181 323.655 208.181Z" fill="#6C63FF"/>
<path d="M402.331 140.507C406.281 140.507 409.483 137.305 409.483 133.355C409.483 129.404 406.281 126.202 402.331 126.202C398.381 126.202 395.179 129.404 395.179 133.355C395.179 137.305 398.381 140.507 402.331 140.507Z" fill="#3F3D56"/>
<path d="M478.807 140.507C482.757 140.507 485.959 137.305 485.959 133.355C485.959 129.404 482.757 126.202 478.807 126.202C474.857 126.202 471.654 129.404 471.654 133.355C471.654 137.305 474.857 140.507 478.807 140.507Z" fill="#3F3D56"/>
<path d="M245.529 208.181C249.479 208.181 252.681 204.979 252.681 201.028C252.681 197.078 249.479 193.876 245.529 193.876C241.579 193.876 238.376 197.078 238.376 201.028C238.376 204.979 241.579 208.181 245.529 208.181Z" fill="#3F3D56"/>
<path d="M57.9983 269.344C65.3352 269.344 71.2828 263.396 71.2828 256.059C71.2828 248.722 65.3352 242.774 57.9983 242.774C50.6615 242.774 44.7139 248.722 44.7139 256.059C44.7139 263.396 50.6615 269.344 57.9983 269.344Z" fill="#FFB8B8"/>
<path d="M53.2019 334.667C53.0346 334.667 52.8666 334.659 52.6978 334.645C51.8623 334.575 51.051 334.329 50.3169 333.924C49.5829 333.519 48.9428 332.963 48.4385 332.294C47.9343 331.624 47.5772 330.855 47.3907 330.038C47.2043 329.22 47.1927 328.373 47.3566 327.55C47.3954 327.359 47.4441 327.171 47.5027 326.985L27.8959 303.795C27.257 303.034 26.8807 302.086 26.8228 301.094C26.7649 300.102 27.0284 299.117 27.5744 298.286L27.6099 298.243L45.2584 280.841C46.2221 279.892 47.5231 279.365 48.8754 279.375C50.2278 279.385 51.5208 279.931 52.4703 280.894C53.4198 281.857 53.9481 283.158 53.939 284.51C53.93 285.863 53.3843 287.156 52.422 288.106C52.3999 288.128 52.3775 288.15 52.355 288.171L39.5728 300.323L53.5661 322.783C53.8312 322.797 54.0949 322.829 54.3554 322.88C55.8029 323.169 57.0914 323.985 57.9706 325.171C58.8499 326.356 59.2572 327.826 59.1134 329.295C58.9697 330.764 58.2851 332.128 57.1927 333.12C56.1003 334.113 54.678 334.664 53.2019 334.667Z" fill="#FFB8B8"/>
<path d="M79.8776 440.949H86.5091L89.6634 415.371L79.8765 415.372L79.8776 440.949Z" fill="#FFB8B8"/>
<path d="M78.1865 438.784L91.2453 438.783C92.3382 438.783 93.4209 438.999 94.4305 439.417C95.4402 439.835 96.3576 440.448 97.1304 441.221C97.9032 441.994 98.5162 442.911 98.9345 443.921C99.3527 444.93 99.568 446.012 99.568 447.105V447.376L78.1869 447.377L78.1865 438.784Z" fill="#2F2E41"/>
<path d="M13.9692 431.781L19.6668 435.173L35.4631 414.811L27.0538 409.804L13.9692 431.781Z" fill="#FFB8B8"/>
<path d="M13.6234 429.055L24.844 435.736C26.7404 436.865 28.111 438.702 28.6536 440.841C29.1961 442.98 28.8665 445.248 27.7374 447.144L27.5989 447.377L9.22754 436.438L13.6234 429.055Z" fill="#2F2E41"/>
<path d="M88.0738 431.915H80.6485C80.0473 431.916 79.467 431.694 79.02 431.292C78.573 430.89 78.2909 430.336 78.2283 429.738L70.7426 359.371C70.7237 359.194 70.647 359.028 70.5244 358.898C70.4019 358.769 70.2402 358.684 70.0643 358.656C69.8884 358.627 69.7081 358.658 69.5513 358.742C69.3944 358.826 69.2696 358.96 69.1962 359.122L55.6918 389.026L31.7828 428.013C31.4734 428.513 30.9943 428.884 30.4332 429.06C29.8722 429.235 29.2667 429.203 28.7277 428.968L19.1763 424.766C18.8605 424.627 18.5778 424.422 18.3471 424.165C18.1163 423.909 17.9427 423.606 17.8378 423.277C17.733 422.949 17.6992 422.601 17.7387 422.259C17.7782 421.916 17.8901 421.585 18.067 421.289L40.046 384.487L46.7867 353.479C44.6666 340.031 53.7552 320.039 53.8474 319.839L53.8925 319.741L78.9273 309.956L79.0529 310.109C88.9259 342.51 94.9421 377.378 90.5 429.685C90.4452 430.292 90.1663 430.856 89.7178 431.269C89.2692 431.681 88.6831 431.911 88.0738 431.915Z" fill="#2F2E41"/>
<path d="M52.8838 323.017L52.7672 322.772C52.7115 322.655 47.1448 310.914 42.8536 298.365C42.0289 295.939 41.7171 293.367 41.938 290.814C42.159 288.26 42.9077 285.78 44.137 283.532C45.3822 281.259 47.0857 279.27 49.1397 277.691C51.1937 276.112 53.5532 274.976 56.069 274.356C60.4364 273.309 65.0346 273.866 69.0258 275.926C73.017 277.985 76.1355 281.41 77.8133 285.576C81.2171 294.088 80.1323 303.173 79.1114 310.318L79.0911 310.462L78.9609 310.524L52.8838 323.017Z" fill="#6C63FF"/>
<path d="M74.1054 248.555H53.0112V239.359C57.6412 237.52 62.1718 235.956 64.9105 239.359C67.3492 239.359 69.6879 240.328 71.4123 242.053C73.1366 243.777 74.1054 246.116 74.1054 248.555Z" fill="#2F2E41"/>
<path d="M51.8433 237.737C39.2328 237.737 35.7031 253.544 35.7031 262.461C35.7031 267.435 37.9522 269.213 41.4864 269.815L42.7345 263.159L45.6578 270.102C46.6506 270.107 47.6935 270.087 48.7747 270.067L49.7659 268.026L51.9761 270.031C60.8285 270.044 67.9832 271.334 67.9832 262.461C67.9832 253.544 64.8877 237.737 51.8433 237.737Z" fill="#2F2E41"/>
<path d="M107.896 255.428C107.976 255.575 108.05 255.726 108.118 255.881C108.458 256.648 108.631 257.477 108.628 258.316C108.624 259.154 108.443 259.982 108.097 260.746C107.751 261.51 107.248 262.192 106.62 262.747C105.992 263.303 105.254 263.719 104.453 263.97C104.267 264.027 104.078 264.075 103.887 264.113L92.937 292.437C92.575 293.363 91.9242 294.148 91.0812 294.674C90.2381 295.201 89.2477 295.442 88.257 295.361L88.202 295.35L64.469 288.206C63.1734 287.815 62.0859 286.927 61.4457 285.735C60.8054 284.543 60.6649 283.145 61.0551 281.85C61.4452 280.554 62.334 279.466 63.5259 278.826C64.7179 278.186 66.1154 278.045 67.4109 278.436C67.4405 278.444 67.4701 278.454 67.4995 278.463L84.2919 283.854L97.2924 260.806C97.1775 260.567 97.0796 260.32 96.9993 260.067C96.5589 258.658 96.6577 257.136 97.2766 255.796C97.8955 254.456 98.9902 253.394 100.348 252.816C101.706 252.237 103.231 252.185 104.626 252.667C106.02 253.15 107.186 254.134 107.896 255.428Z" fill="#FFB8B8"/>
<path d="M110.648 448H0.573307C0.421257 448 0.275433 447.94 0.167917 447.832C0.0604014 447.725 0 447.579 0 447.427C0 447.275 0.0604014 447.129 0.167917 447.021C0.275433 446.914 0.421257 446.853 0.573307 446.853H110.648C110.8 446.853 110.946 446.914 111.054 447.021C111.161 447.129 111.222 447.275 111.222 447.427C111.222 447.579 111.161 447.725 111.054 447.832C110.946 447.94 110.8 448 110.648 448Z" fill="#CCCCCC"/>
</g>
<defs>
<clipPath id="clip0_1699_185">
<rect width="557" height="448" fill="white"/>
</clipPath>
</defs>
</svg>
