<svg width="91" height="77" viewBox="0 0 91 77" fill="none" xmlns="http://www.w3.org/2000/svg">
<rect width="91" height="77" fill="white"/>
<circle cx="26" cy="6" r="4" fill="#DBE3F9"/>
<line x1="46.15" y1="3" x2="46.15" y2="74" stroke="#D1D1D1" stroke-width="0.3"/>
<line x1="7.15" y1="3" x2="7.15" y2="74" stroke="#D1D1D1" stroke-width="0.3"/>
<line x1="3" y1="11.85" x2="88" y2="11.85" stroke="#D1D1D1" stroke-width="0.3"/>
<line x1="3" y1="15.85" x2="88" y2="15.85" stroke="#D1D1D1" stroke-width="0.3"/>
<line x1="3" y1="20.85" x2="88" y2="20.85" stroke="#D1D1D1" stroke-width="0.3"/>
<line x1="3" y1="25.85" x2="88" y2="25.85" stroke="#D1D1D1" stroke-width="0.3"/>
<line x1="3" y1="30.85" x2="88" y2="30.85" stroke="#D1D1D1" stroke-width="0.3"/>
<line x1="3" y1="35.85" x2="88" y2="35.85" stroke="#D1D1D1" stroke-width="0.3"/>
<line x1="3" y1="40.85" x2="88" y2="40.85" stroke="#D1D1D1" stroke-width="0.3"/>
<line x1="3" y1="45.85" x2="88" y2="45.85" stroke="#D1D1D1" stroke-width="0.3"/>
<line x1="3" y1="50.85" x2="88" y2="50.85" stroke="#D1D1D1" stroke-width="0.3"/>
<line x1="3" y1="55.85" x2="88" y2="55.85" stroke="#D1D1D1" stroke-width="0.3"/>
<line x1="3" y1="60.85" x2="88" y2="60.85" stroke="#D1D1D1" stroke-width="0.3"/>
<line x1="3" y1="65.85" x2="88" y2="65.85" stroke="#D1D1D1" stroke-width="0.3"/>
<line x1="3" y1="70.85" x2="88" y2="70.85" stroke="#D1D1D1" stroke-width="0.3"/>
<rect x="9" y="17" width="35" height="13" rx="2" fill="#D2D0F4"/>
<rect x="49" y="32" width="35" height="13" rx="2" fill="#D2D0F4"/>
<rect x="49" y="47" width="35" height="13" rx="2" fill="#D2D0F4"/>
<rect x="9" y="37" width="35" height="13" rx="2" fill="#D2D0F4"/>
<circle cx="67" cy="6" r="4" fill="#DBE3F9"/>
</svg>
